HIERARCHY
ROOT Hips
{
    OFFSET   0.000000   0.000000   0.000000
    CHANNELS 6 Xposition Yposition Zposition Zrotation Xrotation Yrotation
    JOINT Chest
    {
        OFFSET   0.000000   8.007240   0.000000
        CHANNELS 3 Zrotation Xrotation Yrotation
        JOINT Chest2
        {
            OFFSET   0.000000  22.077100   0.000000
            CHANNELS 3 Zrotation Xrotation Yrotation
            JOINT Neck
            {
                OFFSET   0.000000  23.254800   0.000000
                CHANNELS 3 Zrotation Xrotation Yrotation
                JOINT Head
                {
                    OFFSET   0.000000  14.370000   1.956600
                    CHANNELS 3 Zrotation Xrotation Yrotation
                    End Site
                    {
                        OFFSET   0.000000  19.566000   0.000000
                    }
                }
            }
            JOINT LeftCollar
            {
                OFFSET   3.911900  19.017000  -0.467064
                CHANNELS 3 Zrotation Xrotation Yrotation
                JOINT LeftShoulder
                {
                    OFFSET  10.383700   0.000000   0.000000
                    CHANNELS 3 Zrotation Xrotation Yrotation
                    JOINT LeftElbow
                    {
                        OFFSET  26.662100   0.001476   0.000517
                        CHANNELS 3 Zrotation Xrotation Yrotation
                        JOINT LeftWrist
                        {
                            OFFSET  28.869000  -0.000025  -0.000106
                            CHANNELS 3 Zrotation Xrotation Yrotation
                            JOINT LeftFinger0
                            {
                                OFFSET   2.044660  -2.323460   3.252850
                                CHANNELS 3 Zrotation Xrotation Yrotation
                                JOINT LeftFinger01
                                {
                                    OFFSET   3.088130   0.000000   0.000000
                                    CHANNELS 3 Zrotation Xrotation Yrotation
                                    JOINT LeftFinger02
                                    {
                                        OFFSET   2.639460   0.000000   0.000000
                                        CHANNELS 3 Zrotation Xrotation Yrotation
                                        End Site
                                        {
                                            OFFSET   2.582190   0.000000   0.000000
                                        }
                                    }
                                }
                            }
                            JOINT LeftFinger1
                            {
                                OFFSET   8.364480   0.000000   3.252850
                                CHANNELS 3 Zrotation Xrotation Yrotation
                                JOINT LeftFinger11
                                {
                                    OFFSET   4.646930   0.000000   0.000000
                                    CHANNELS 3 Zrotation Xrotation Yrotation
                                    JOINT LeftFinger12
                                    {
                                        OFFSET   2.323460   0.000000   0.000000
                                        CHANNELS 3 Zrotation Xrotation Yrotation
                                        End Site
                                        {
                                            OFFSET   2.273050   0.000000   0.000000
                                        }
                                    }
                                }
                            }
                            JOINT LeftFinger2
                            {
                                OFFSET   8.364490   0.000015   1.078090
                                CHANNELS 3 Zrotation Xrotation Yrotation
                                JOINT LeftFinger21
                                {
                                    OFFSET   5.111620   0.000000   0.000000
                                    CHANNELS 3 Zrotation Xrotation Yrotation
                                    JOINT LeftFinger22
                                    {
                                        OFFSET   2.788160   0.000016   0.000000
                                        CHANNELS 3 Zrotation Xrotation Yrotation
                                        End Site
                                        {
                                            OFFSET   2.727660   0.000000   0.000000
                                        }
                                    }
                                }
                            }
                            JOINT LeftFinger3
                            {
                                OFFSET   7.899780   0.000017  -1.078090
                                CHANNELS 3 Zrotation Xrotation Yrotation
                                JOINT LeftFinger31
                                {
                                    OFFSET   4.646930   0.000000   0.000000
                                    CHANNELS 3 Zrotation Xrotation Yrotation
                                    JOINT LeftFinger32
                                    {
                                        OFFSET   2.323470   0.000000   0.000000
                                        CHANNELS 3 Zrotation Xrotation Yrotation
                                        End Site
                                        {
                                            OFFSET   2.273050   0.000000   0.000000
                                        }
                                    }
                                }
                            }
                            JOINT LeftFinger4
                            {
                                OFFSET   7.435090   0.000000  -3.252850
                                CHANNELS 3 Zrotation Xrotation Yrotation
                                JOINT LeftFinger41
                                {
                                    OFFSET   3.717550   0.000000   0.000000
                                    CHANNELS 3 Zrotation Xrotation Yrotation
                                    JOINT LeftFinger42
                                    {
                                        OFFSET   1.858770   0.000000   0.000000
                                        CHANNELS 3 Zrotation Xrotation Yrotation
                                        End Site
                                        {
                                            OFFSET   1.818440   0.000000   0.000000
                                        }
                                    }
                                }
                            }
                        }
                    }
                }
            }
            JOINT RightCollar
            {
                OFFSET  -3.911900  19.017000  -0.467063
                CHANNELS 3 Zrotation Xrotation Yrotation
                JOINT RightShoulder
                {
                    OFFSET -10.383700   0.000019   0.000000
                    CHANNELS 3 Zrotation Xrotation Yrotation
                    JOINT RightElbow
                    {
                        OFFSET -26.662100   0.001175   0.000102
                        CHANNELS 3 Zrotation Xrotation Yrotation
                        JOINT RightWrist
                        {
                            OFFSET -28.869000   0.000016  -0.000079
                            CHANNELS 3 Zrotation Xrotation Yrotation
                            JOINT RightFinger0
                            {
                                OFFSET  -2.044660  -2.323490   3.252850
                                CHANNELS 3 Zrotation Xrotation Yrotation
                                JOINT RightFinger01
                                {
                                    OFFSET  -3.088140   0.000000   0.000000
                                    CHANNELS 3 Zrotation Xrotation Yrotation
                                    JOINT RightFinger02
                                    {
                                        OFFSET  -2.639460   0.000000   0.000000
                                        CHANNELS 3 Zrotation Xrotation Yrotation
                                        End Site
                                        {
                                            OFFSET  -2.582190   0.000000   0.000000
                                        }
                                    }
                                }
                            }
                            JOINT RightFinger1
                            {
                                OFFSET  -8.364480   0.000000   3.252850
                                CHANNELS 3 Zrotation Xrotation Yrotation
                                JOINT RightFinger11
                                {
                                    OFFSET  -4.646930   0.000000   0.000000
                                    CHANNELS 3 Zrotation Xrotation Yrotation
                                    JOINT RightFinger12
                                    {
                                        OFFSET  -2.323470   0.000000   0.000000
                                        CHANNELS 3 Zrotation Xrotation Yrotation
                                        End Site
                                        {
                                            OFFSET  -2.273050   0.000000   0.000000
                                        }
                                    }
                                }
                            }
                            JOINT RightFinger2
                            {
                                OFFSET  -8.364480   0.000000   1.078090
                                CHANNELS 3 Zrotation Xrotation Yrotation
                                JOINT RightFinger21
                                {
                                    OFFSET  -5.111620   0.000000   0.000000
                                    CHANNELS 3 Zrotation Xrotation Yrotation
                                    JOINT RightFinger22
                                    {
                                        OFFSET  -2.788160   0.000000   0.000000
                                        CHANNELS 3 Zrotation Xrotation Yrotation
                                        End Site
                                        {
                                            OFFSET  -2.727660   0.000000   0.000000
                                        }
                                    }
                                }
                            }
                            JOINT RightFinger3
                            {
                                OFFSET  -7.899780   0.000000  -1.078090
                                CHANNELS 3 Zrotation Xrotation Yrotation
                                JOINT RightFinger31
                                {
                                    OFFSET  -4.646930   0.000000   0.000000
                                    CHANNELS 3 Zrotation Xrotation Yrotation
                                    JOINT RightFinger32
                                    {
                                        OFFSET  -2.323470   0.000000   0.000000
                                        CHANNELS 3 Zrotation Xrotation Yrotation
                                        End Site
                                        {
                                            OFFSET  -2.273050   0.000000   0.000000
                                        }
                                    }
                                }
                            }
                            JOINT RightFinger4
                            {
                                OFFSET  -7.435090   0.000000  -3.252850
                                CHANNELS 3 Zrotation Xrotation Yrotation
                                JOINT RightFinger41
                                {
                                    OFFSET  -3.717550   0.000000   0.000000
                                    CHANNELS 3 Zrotation Xrotation Yrotation
                                    JOINT RightFinger42
                                    {
                                        OFFSET  -1.858770   0.000000   0.000000
                                        CHANNELS 3 Zrotation Xrotation Yrotation
                                        End Site
                                        {
                                            OFFSET  -1.818440   0.000000   0.000000
                                        }
                                    }
                                }
                            }
                        }
                    }
                }
            }
        }
    }
    JOINT LeftHip
    {
        OFFSET   9.783040   0.000000   0.000000
        CHANNELS 3 Zrotation Xrotation Yrotation
        JOINT LeftKnee
        {
            OFFSET   0.000032 -41.789100  -0.002222
            CHANNELS 3 Zrotation Xrotation Yrotation
            JOINT LeftAnkle
            {
                OFFSET   0.000087 -41.133200  -0.000135
                CHANNELS 3 Zrotation Xrotation Yrotation
                JOINT LeftToe
                {
                    OFFSET   0.000000  -6.358960  14.674500
                    CHANNELS 3 Zrotation Xrotation Yrotation
                    End Site
                    {
                        OFFSET   0.000000   0.000000   3.913200
                    }
                }
            }
        }
    }
    JOINT RightHip
    {
        OFFSET  -9.783040   0.000000   0.000000
        CHANNELS 3 Zrotation Xrotation Yrotation
        JOINT RightKnee
        {
            OFFSET   0.000047 -41.789100  -0.000896
            CHANNELS 3 Zrotation Xrotation Yrotation
            JOINT RightAnkle
            {
                OFFSET  -0.000117 -41.133300  -0.000248
                CHANNELS 3 Zrotation Xrotation Yrotation
                JOINT RightToe
                {
                    OFFSET   0.000000  -6.358970  14.674500
                    CHANNELS 3 Zrotation Xrotation Yrotation
                    End Site
                    {
                        OFFSET   0.000000   0.000000   3.913200
                    }
                }
            }
        }
    }
}
MOTION
Frames: 5
Frame Time:   0.016667
  0.050094  89.418700  -0.240968  -3.129360  -5.924240   0.141510   1.755430   4.955420  -0.227059   3.550650   9.901460  -0.610488   1.099280  -1.273810   0.016721   1.800240  -2.585640   5.928800  -6.879590   2.620360   1.160230 -69.728700  11.737800  -7.922860  -3.773930  -9.231010 -15.710000   1.336100   3.934910   7.353760  38.384600  26.298300 -67.264500 -10.260200   0.000000   0.000094  -0.125027  -0.001631  -0.002507 -30.576000   4.404780  -7.406340 -25.250100  -0.002686  -0.005854 -17.675100  -0.001827  -0.002274 -28.280800   0.446604  -0.829947 -34.146000  -0.004689  -0.005193 -22.741200  -0.004838  -0.001228 -28.132100  -2.221920   4.125250 -33.576700  -0.003675  -0.002150 -22.362100  -0.003592  -0.000826 -32.965600  -2.561310   3.924750 -49.580800  -0.003808  -0.001884 -33.020800  -0.002832  -0.003645   7.123680   0.816172   9.597900  67.763700  14.957900   2.699040  -2.016890   1.090260  14.713100 -15.594000 -14.995800   1.972880 -39.182200  29.196700  67.113900  25.275500  -0.005709   0.002791   7.637740  -0.002663   0.001916  31.934700   4.603990   7.338410  26.370100   0.000148  -0.004364  18.459000  -0.003651  -0.002070  28.360800   1.617180   2.977960  35.233600   0.008834  -0.005941  23.465700  -0.002624  -0.007583  28.684300   0.639645   1.169000  38.845700   0.007871  -0.005787  25.871200  -0.003399  -0.005678  39.371000  -0.901372  -1.088530  59.069400   0.002316  -0.001724  39.340200  -0.003430  -0.001320   3.258950   8.511730   4.902350   0.480733   0.468857   9.320530  -2.031110  -3.209120   4.431000  -0.000000   0.000000  -0.000000   1.960910   0.877830  -4.892760   0.226522   9.758740  -7.543310  -2.367340  -4.424620  -1.141330   0.000000   0.000000  -0.000000
  0.039474  89.418700  -0.233447  -3.128760  -5.923240   0.147489   1.755180   4.960590  -0.223950   3.550030   9.911890  -0.604396   1.093260  -1.273710   0.016732   1.794570  -2.585360   5.932100  -6.885490   2.620340   1.160630 -69.722600  11.771900  -7.927940  -3.778150  -9.219680 -15.735700   1.333570   3.919740   7.348920  38.396700  26.326500 -67.290400 -10.265300   0.000000   0.000088  -0.130098  -0.001597  -0.002498 -30.568400   4.396400  -7.396170 -25.243200  -0.002686  -0.005857 -17.670200  -0.001823  -0.002280 -28.280900   0.446604  -0.829946 -34.122800  -0.004685  -0.005200 -22.725800  -0.004832  -0.001223 -28.131900  -2.221890   4.136100 -33.553900  -0.003673  -0.002154 -22.346900  -0.003586  -0.000823 -32.951600  -2.561280   3.935680 -49.559700  -0.003805  -0.001879 -33.006600  -0.002830  -0.003638   7.114250   0.808752   9.604080  67.750000  14.967800   2.706250  -2.026430   1.091700  14.757100 -15.598300 -15.013000   1.990330 -39.202000  29.210100  67.124000  25.259300  -0.005724   0.002782   7.629660  -0.002665   0.001915  31.943100   4.607440   7.341440  26.377200   0.000142  -0.004357  18.464000  -0.003652  -0.002063  28.360600   1.617170   2.984760  35.232900   0.008831  -0.005938  23.465200  -0.002624  -0.007582  28.683600   0.657192   1.201010  38.866400   0.007868  -0.005779  25.885000  -0.003400  -0.005678  39.385100  -0.901371  -1.092870  59.090600   0.002320  -0.001718  39.354300  -0.003427  -0.001312   3.262840   8.523790   4.902800   0.480874   0.440669   9.325270  -2.035690  -3.194860   4.426510  -0.000000   0.000000   0.000000   1.965960   0.908950  -4.909890   0.230903   9.708370  -7.548080  -2.371140  -4.409100  -1.125740  -0.000000   0.000000   0.000000
  0.021678  89.418700  -0.221832  -3.127660  -5.919940   0.158536   1.754780   4.968410  -0.218920   3.548810   9.927700  -0.594497   1.084030  -1.273600   0.016753   1.784740  -2.585060   5.940470  -6.894220   2.620200   1.162960 -69.712600  11.825900  -7.938310  -3.785640  -9.200650 -15.774400   1.331750   3.899010   7.344040  38.408100  26.356100 -67.315000 -10.270300   0.000000   0.000082  -0.135169  -0.001543  -0.002472 -30.550200   4.388020  -7.386000 -25.227500  -0.002686  -0.005863 -17.659200  -0.001813  -0.002294 -28.280900   0.446602  -0.829945 -34.099600  -0.004674  -0.005219 -22.710300  -0.004814  -0.001210 -28.131700  -2.221860   4.146940 -33.519700  -0.003668  -0.002162 -22.324100  -0.003569  -0.000812 -32.932400  -2.561240   3.946600 -49.531100  -0.003796  -0.001863 -32.987600  -0.002822  -0.003620   7.100060   0.797825   9.614670  67.730000  14.977800   2.716540  -2.044960   1.099020  14.838200 -15.607800 -15.040500   2.014480 -39.219300  29.228800  67.128800  25.243200  -0.005757   0.002773   7.621590  -0.002677   0.001914  31.955400   4.616070   7.351470  26.388000   0.000128  -0.004347  18.471600  -0.003656  -0.002045  28.360500   1.617160   2.991560  35.228200   0.008825  -0.005927  23.462100  -0.002625  -0.007580  28.682800   0.674737   1.233010  38.887200   0.007861  -0.005763  25.898900  -0.003402  -0.005674  39.399200  -0.901369  -1.097210  59.111800   0.002326  -0.001704  39.368400  -0.003421  -0.001290   3.270910   8.535860   4.903250   0.481019   0.412482   9.330010  -2.045210  -3.180610   4.417930   0.000000   0.000000   0.000000   1.974020   0.952550  -4.928220   0.239370   9.633180  -7.561080  -2.378500  -4.385400  -1.101930  -0.000000   0.000000   0.000000
  0.006950  89.418700  -0.214569  -3.126600  -5.912980   0.169633   1.753820   4.972620  -0.215153   3.546510   9.936250  -0.586965   1.078570  -1.273670   0.016775   1.776190  -2.586110   5.952980  -6.897800   2.616030   1.168860 -69.706800  11.864700  -7.950080  -3.793690  -9.181400 -15.795800   1.343860   3.893870   7.345200  38.406300  26.328300 -67.279000 -10.268300   0.000038   0.000098  -0.134140  -0.001513  -0.002432 -30.518800   4.396290  -7.408670 -25.202900  -0.002687  -0.005866 -17.642000  -0.001795  -0.002312 -28.281100   0.443301  -0.823848 -34.099700  -0.004659  -0.005249 -22.710400  -0.004784  -0.001191 -28.132200  -2.207940   4.121260 -33.496900  -0.003659  -0.002174 -22.309000  -0.003540  -0.000792 -32.927600  -2.545140   3.922230 -49.522400  -0.003780  -0.001836 -32.981900  -0.002811  -0.003592   7.091880   0.791214   9.623960  67.721100  14.977400   2.719010  -2.066150   1.117480  14.923600 -15.620200 -15.060300   2.023710 -39.225200  29.235400  67.102200  25.254300  -0.005799   0.002793   7.627160  -0.002705   0.001936  31.960900   4.633340   7.376440  26.394300   0.000104  -0.004342  18.476000  -0.003662  -0.002015  28.361600   1.607460   2.973830  35.205100   0.008813  -0.005904  23.446600  -0.002632  -0.007573  28.683000   0.670583   1.225450  38.872300   0.007850  -0.005742  25.888900  -0.003407  -0.005662  39.392900  -0.901284  -1.097100  59.102300   0.002329  -0.001683  39.362100  -0.003412  -0.001259   3.283430   8.505930   4.902870   0.479339   0.460599   9.322380  -2.057000  -3.204650   4.408590   0.000000   0.000000   0.000000   1.979770   0.968934  -4.929030   0.250012   9.590940  -7.589430  -2.386560  -4.370170  -1.086880   0.000000   0.000000   0.000000
 -0.007323  89.418700  -0.208224  -3.125410  -5.905900   0.182045   1.752560   4.976680  -0.211688   3.543790   9.944490  -0.580027   1.073690  -1.274090   0.016801   1.767360  -2.589140   5.969410  -6.902150   2.610180   1.175590 -69.702500  11.897700  -7.965190  -3.800060  -9.169370 -15.814000   1.366690   3.890410   7.353550  38.407600  26.288300 -67.228400 -10.256700   0.000099   0.000138  -0.128337  -0.001475  -0.002374 -30.489200   4.404560  -7.431350 -25.179900  -0.002689  -0.005872 -17.625900  -0.001772  -0.002337 -28.281300   0.438088  -0.814184 -34.100500  -0.004639  -0.005289 -22.710900  -0.004744  -0.001167 -28.132600  -2.194020   4.095590 -33.485500  -0.003646  -0.002189 -22.301400  -0.003503  -0.000768 -32.928000  -2.529030   3.897870 -49.521100  -0.003759  -0.001802 -32.981100  -0.002796  -0.003554   7.085590   0.788101   9.633180  67.713100  14.977000   2.723980  -2.088940   1.137250  15.010900 -15.636300 -15.078300   2.026340 -39.231100  29.242000  67.075500  25.271700  -0.005856   0.002839   7.635860  -0.002741   0.001970  31.966700   4.645430   7.394410  26.400300   0.000074  -0.004338  18.480200  -0.003675  -0.001973  28.363300   1.591700   2.944920  35.186000   0.008797  -0.005875  23.433900  -0.002643  -0.007564  28.683400   0.662281   1.210320  38.857400   0.007836  -0.005716  25.879000  -0.003415  -0.005643  39.386600  -0.901143  -1.096910  59.092900   0.002334  -0.001654  39.355800  -0.003400  -0.001216   3.295380   8.476010   4.902480   0.480307   0.508717   9.314750  -2.069080  -3.228700   4.398220  -0.000000   0.000000   0.000000   1.985250   0.977654  -4.929840   0.259222   9.560240  -7.609230  -2.395690  -4.359130  -1.075530   0.000000   0.000000  -0.000000
